<?xml version="1.0" encoding="iso-8859-1"?>
<!-- Generator: Adobe Illustrator 19.0.0, SVG Export Plug-In . SVG Version: 6.00 Build 0)  -->
<svg version="1.1" id="Capa_1" xmlns="http://www.w3.org/2000/svg" xmlns:xlink="http://www.w3.org/1999/xlink" x="0px" y="0px"
	 viewBox="0 0 512.007 512.007" style="enable-background:new 0 0 512.007 512.007;" xml:space="preserve">
<circle style="fill:#696E73;" cx="256.003" cy="256.003" r="256.003"/>
<path style="fill:#50555A;" d="M511.393,238.49l-138.13-138.13c-14.588-14.588-34.729-23.623-56.94-23.623
	c-44.423,0-80.564,36.14-80.564,80.563v6.365l-29.23-29.23l-0.46,0.46c-13.63-10.576-30.729-16.881-49.278-16.881
	c-44.423,0-80.564,36.14-80.564,80.564c0,18.547,6.317,35.638,16.889,49.27l-0.468,0.468l7.2,7.2
	c0.001,0.001,0.002,0.002,0.004,0.004l40.6,40.6c-15.585,14.698-25.336,35.517-25.336,58.58c0,24.497,11.004,46.46,28.313,61.248
	l0,0l95.062,95.445c5.787,0.391,11.623,0.608,17.509,0.608c141.385,0,256.001-114.615,256.001-256.001
	C512,250.114,511.783,244.278,511.393,238.49z"/>
<path style="fill:#FFFFFF;" d="M316.323,237.864H208.3l-6.335-36.304l15.536-5.593c10.921-3.931,18.258-14.371,18.258-25.978V157.3
	c0-44.423,36.141-80.563,80.564-80.563s80.564,36.14,80.564,80.563S360.745,237.864,316.323,237.864z M265.553,200.455h50.77
	c23.795,0,43.154-19.359,43.154-43.154s-19.359-43.154-43.154-43.154s-43.154,19.359-43.154,43.154v12.689
	C273.168,180.841,270.446,191.258,265.553,200.455z"/>
<path style="fill:#FF3C3C;" d="M355.211,232.859h-10.939c-8.711,3.233-18.126,5.006-27.949,5.006h-41.675v36.271h-37.294v-75.558
	c0-44.423-36.141-80.564-80.564-80.564s-80.564,36.14-80.564,80.564s36.141,80.564,80.564,80.564h10.939
	c-30.687,11.388-52.614,40.957-52.614,75.558c0,44.423,36.14,80.563,80.564,80.563c44.423,0,80.564-36.14,80.564-80.563v-12.689
	c0-2.681,0.407-5.292,1.144-7.783c9.197,34.369,40.596,59.758,77.825,59.758c44.423,0,80.564-36.141,80.564-80.564
	C435.775,268.999,399.633,232.859,355.211,232.859z M113.635,198.578c0-23.795,19.359-43.154,43.154-43.154
	s43.154,19.359,43.154,43.154v50.77c-9.197-4.893-19.614-7.616-30.466-7.616h-12.689
	C132.994,241.732,113.635,222.373,113.635,198.578z M238.832,342.011V354.7c0,23.795-19.359,43.154-43.154,43.154
	s-43.154-19.359-43.154-43.154c0-23.795,19.359-43.154,43.154-43.154h50.77C241.555,320.742,238.832,331.16,238.832,342.011z
	 M355.211,356.577c-23.795,0-43.154-19.359-43.154-43.154v-50.77c9.197,4.893,19.614,7.615,30.466,7.615h12.689
	c23.795,0,43.154,19.359,43.154,43.154C398.365,337.218,379.006,356.577,355.211,356.577z"/>
<g></g>
<g></g>
<g></g>
<g></g>
<g></g>
<g></g>
<g></g>
<g></g>
<g></g>
<g></g>
<g></g>
<g></g>
<g></g>
<g></g>
<g></g>
</svg>
